<svg width="24" height="24" viewBox="0 0 24 24" fill="none" xmlns="http://www.w3.org/2000/svg">
<g id="medium-m 1">
<path id="Vector" d="M3.35146 6.67031C3.37959 6.39375 3.27178 6.11719 3.06553 5.92969L0.951465 3.37969V3H7.52334L12.6046 14.1422L17.0718 3H23.339V3.37969L21.5296 5.11406C21.3749 5.23125 21.2952 5.42812 21.328 5.62031V18.3703C21.2952 18.5625 21.3749 18.7594 21.5296 18.8766L23.2968 20.6109V20.9906H14.4046V20.6109L16.2374 18.8344C16.4155 18.6562 16.4155 18.6 16.4155 18.3281V8.025L11.3202 20.9578H10.6311L4.70615 8.025V16.6922C4.65459 17.0578 4.77646 17.4234 5.03428 17.6859L7.41552 20.5734V20.9531H0.665527V20.5781L3.04678 17.6859C3.2999 17.4234 3.41709 17.0531 3.35146 16.6922V6.67031Z" fill="white"/>
</g>
</svg>
